<?xml version="1.0" encoding="UTF-8" standalone="no"?>
<!-- Created with Inkscape (http://www.inkscape.org/) -->

<svg
   xmlns:dc="http://purl.org/dc/elements/1.1/"
   xmlns:cc="http://creativecommons.org/ns#"
   xmlns:rdf="http://www.w3.org/1999/02/22-rdf-syntax-ns#"
   xmlns:svg="http://www.w3.org/2000/svg"
   xmlns="http://www.w3.org/2000/svg"
   xmlns:sodipodi="http://sodipodi.sourceforge.net/DTD/sodipodi-0.dtd"
   xmlns:inkscape="http://www.inkscape.org/namespaces/inkscape"
   width="299.55875mm"
   height="155.62537mm"
   viewBox="0 0 1061.4286 551.42846"
   id="svg2"
   version="1.1"
   inkscape:version="0.91 r13725"
   sodipodi:docname="logo2.svg"
   inkscape:export-filename="D:\usuario\NextCloud_UOC\pR0j3Ct5\PLATAFORMA\Difusión\Logo2.png"
   inkscape:export-xdpi="90"
   inkscape:export-ydpi="90">
  <defs
     id="defs4" />
  <sodipodi:namedview
     id="base"
     pagecolor="#ffffff"
     bordercolor="#666666"
     borderopacity="1.0"
     inkscape:pageopacity="0.0"
     inkscape:pageshadow="2"
     inkscape:zoom="0.7"
     inkscape:cx="346.14289"
     inkscape:cy="106.62923"
     inkscape:document-units="px"
     inkscape:current-layer="layer1"
     showgrid="false"
     inkscape:window-width="1920"
     inkscape:window-height="1017"
     inkscape:window-x="-8"
     inkscape:window-y="-8"
     inkscape:window-maximized="1"
     fit-margin-top="0"
     fit-margin-left="0"
     fit-margin-right="0"
     fit-margin-bottom="0" />
  <metadata
     id="metadata7">
    <rdf:RDF>
      <cc:Work
         rdf:about="">
        <dc:format>image/svg+xml</dc:format>
        <dc:type
           rdf:resource="http://purl.org/dc/dcmitype/StillImage" />
        <dc:title></dc:title>
      </cc:Work>
    </rdf:RDF>
  </metadata>
  <g
     inkscape:groupmode="layer"
     id="layer2"
     inkscape:label="Fondo"
     transform="translate(107.14286,-260.93365)">
    <rect
       style="opacity:1;fill:#002255;fill-opacity:1;stroke:none;stroke-width:22.89999962;stroke-linecap:butt;stroke-linejoin:bevel;stroke-miterlimit:4;stroke-dasharray:none;stroke-dashoffset:0;stroke-opacity:1"
       id="rect4490"
       width="1061.4286"
       height="551.42847"
       x="-107.14286"
       y="260.93365" />
  </g>
  <g
     inkscape:groupmode="layer"
     id="layer3"
     inkscape:label="FondoTexto"
     transform="translate(107.14286,-260.93365)" />
  <g
     inkscape:label="Logo"
     inkscape:groupmode="layer"
     id="layer1"
     transform="translate(107.14286,-260.93365)">
    <g
       id="g4502">
      <g
         style="fill:#ffffff"
         transform="matrix(1.0957263,0,0,1,-211.0302,21.428571)"
         id="g4382">
        <g
           style="fill:#ffffff"
           transform="translate(135,-32.142857)"
           id="g4431">
          <path
             sodipodi:nodetypes="ccccccccccccccsscccsccscccccccccccccscsssscccccccccccssssssccscccccccccccccccccccssccccssccccsccccccscccccccccscssccccssscccccccscccccscccccccccccscccccccccccc"
             inkscape:connector-curvature="0"
             id="path4429"
             d="m 378.32156,440.55597 -4.82209,28.14273 c 9.50039,3.12983 18.99899,5.4861 28.49129,7.34716 -4.32553,1.5667 -8.46332,3.26709 -12.44315,5.07985 -11.8515,-1.91435 -23.77702,-3.69677 -35.77425,-5.47705 -2.40643,-0.81431 -4.28095,-0.72538 -6.6246,-0.9992 -0.0558,-0.006 -0.10422,-0.004 -0.16014,-0.0101 -2.77046,-0.38611 -5.50592,-0.88459 -8.28475,-1.23357 l -0.6637,-0.0815 -0.66549,0.0321 c -2.40063,0.12417 -4.03128,0.21165 -5.11392,0.2788 -0.54131,0.0336 -0.91134,0.0563 -1.35409,0.10118 -0.22138,0.0224 -0.29851,-0.0101 -1.1477,0.18257 -0.2123,0.0484 -0.47295,0.10143 -1.01958,0.30346 -0.27331,0.10093 -0.61611,0.23119 -1.1726,0.53784 -0.55649,0.30665 -2.71264,2.19969 -2.71354,2.2007 -9e-4,0.001 -3.83105,12.5173 -3.83099,12.51829 7e-5,9.9e-4 4.48478,10.6497 4.4858,10.65066 9.1e-4,9.8e-4 1.96159,1.4892 2.47332,1.73687 0.51173,0.24769 0.8341,0.35668 1.09075,0.43916 2.05324,0.65987 1.66158,0.34807 1.90216,0.36761 0.24057,0.0196 0.40925,0.0287 0.59074,0.037 0.36298,0.0165 0.75074,0.0285 1.21532,0.0419 0.92914,0.0268 2.13751,0.0565 3.52137,0.10611 2.65995,0.0955 5.95327,0.28291 8.74027,0.59211 0.21047,0.0296 0.42293,0.0664 0.63345,0.0963 2.54144,0.38407 5.0789,1.62658 3.59968,0.54031 0.0196,0.003 0.0392,0.008 0.0587,0.0101 l 0.76512,0.52551 1.22599,0.3824 c 0.1917,0.0598 0.38476,0.0966 0.57652,0.15544 0.18281,4.30706 1.5587,8.46053 3.19752,10.94179 0.11046,0.16722 0.22065,0.24518 0.33097,0.40461 -13.8626,2.80851 -27.84943,6.89976 -41.52518,14.54876 l -0.36655,0.20724 -0.35587,0.24178 c 2.31465,-1.58736 -0.24771,-0.13682 -2.91461,-0.0222 -2.6669,0.11457 -5.97963,0.0272 -9.23849,0.27138 -1.62944,0.12215 -3.21004,0.25708 -5.25805,0.94492 -2.048,0.68784 -6.21422,1.19214 -8.81322,9.78717 -1.2995,4.29752 -0.82903,9.45242 0.0943,12.40481 0.92333,2.95238 1.99139,4.54016 2.93952,5.85453 1.89626,2.62878 3.67873,4.20204 5.98046,6.10372 l 1.51424,1.25331 1.72778,0.49096 c 10.36199,2.95024 20.68143,4.45666 30.94503,5.54369 -2.42587,0.13291 -4.85463,0.42902 -7.2794,0.42187 l -0.0142,9.38009 -2.81674,-1.72947 c -1.5213,4.7645 -2.11314,11.3781 -0.36477,17.06032 -0.14791,0.0812 -0.29326,0.17855 -0.44129,0.25905 l 0.45552,-0.19983 c 3.4e-4,10e-4 0.002,10e-4 0.002,0.003 -6.7638,2.52127 -11.90628,7.13495 -16.23142,11.69181 -1.13146,1.19206 -2.06842,1.96658 -3.64059,4.81093 -0.78609,1.42217 -2.63282,3.22106 -2.35412,10.25099 0.13936,3.51496 1.7601,8.16832 3.83633,10.55198 2.07623,2.38366 3.92959,2.96364 5.18153,3.24676 5.00775,1.13249 5.45399,-0.37313 7.18865,-1.14228 1.73467,-0.76916 3.63943,-1.79887 6.06588,-3.23689 7.7728,-4.00486 15.26927,-8.31698 22.66207,-12.61452 2.50932,0.2747 5.19935,0.56505 7.72781,0.99179 3.23003,0.54513 6.55919,1.76591 5.79541,1.34706 l 0.36655,0.19983 0.37544,0.16284 c 8.09771,3.48729 16.47651,5.76401 24.96457,6.88334 1.86904,2.77408 3.27692,3.21135 4.3915,3.4244 l -1.61567,11.65726 c 0.52237,0.19742 1.04043,0.2268 1.56228,0.39474 l -0.004,0.0197 c 0.0499,0.008 0.0995,0.008 0.14946,0.0148 5.80846,1.83984 11.56925,1.98246 17.22965,1.38161 9.10055,0.24121 18.0367,-0.0533 26.51262,0.0789 l 0.0249,0 0.0267,0 c 44.00322,0.3889 88.02421,-0.88873 131.99729,-3.74759 2.40873,-0.0269 4.82421,-0.10914 7.2367,-0.1653 25.75003,2.41076 51.61477,3.92724 77.63217,3.67357 l 0.10143,0 0.10142,-0.005 c 22.34552,-0.8216 43.51647,-6.80098 63.96129,-10.8135 2.71134,0.42172 4.89547,0.25929 7.36301,0.0246 3.32584,-0.31624 6.74751,-0.86452 9.43599,-1.3594 1.34432,-0.24744 2.48986,-0.47999 3.38796,-0.68093 0.44905,-0.10042 0.81985,-0.18575 1.23492,-0.29852 0.20753,-0.0563 0.39457,-0.10207 0.82203,-0.25412 0.21372,-0.076 0.44249,-0.13761 1.1121,-0.48357 0.33481,-0.17296 0.74778,-0.33811 1.72423,-1.14722 0.48822,-0.40454 1.14208,-0.92623 2.12454,-2.32404 0.98246,-1.39782 2.93773,-9.10263 2.93773,-9.10377 9e-5,-10e-4 -3.57573,-11.92768 -3.57655,-11.92865 -8.2e-4,-9.9e-4 -2.69166,-2.39087 -3.43416,-2.74594 -1.4849,-0.71014 -1.98652,-0.66819 -2.41279,-0.72534 -0.85264,-0.11432 -1.08924,-0.0725 -1.3292,-0.0642 -0.48003,0.0167 -0.67508,0.0442 -0.90211,0.0715 -0.45425,0.0546 -0.87925,0.12265 -1.44846,0.2171 -0.94912,0.15756 -2.49998,0.44835 -4.25628,0.78456 -0.44778,-0.0229 -0.89227,-0.0163 -1.33986,-0.037 l -5.93596,-16.70505 c -3.47397,2.32831 -9.88905,3.3866 -17.40404,4.36685 0.49551,-0.8707 1.05173,-1.62581 1.47154,-2.63738 0.83786,-2.01883 1.34248,-4.14977 1.6299,-6.29862 2.38953,-1.28723 4.7715,-2.64059 7.12817,-4.17688 l -3.84167,-19.31774 c 0.21903,-0.0872 0.4394,-0.14095 0.65842,-0.22946 l 0.96797,-0.39227 0.89501,-0.63899 c 3.18171,-2.27619 5.70519,-4.40398 8.0267,-7.40884 2.32159,-3.00485 5.25304,-7.97268 4.87195,-15.52082 -0.38117,-7.54812 -4.28424,-12.34753 -6.84526,-14.38345 -2.56093,-2.03593 -4.76509,-2.82013 -7.00889,-3.46881 -6.49682,-1.87822 -13.08204,-2.30775 -19.32046,-1.14476 0.63905,-4.06513 0.73865,-8.61125 -0.38434,-12.7206 -1.33128,-4.87155 -3.77787,-8.36102 -6.08901,-10.65067 -0.66753,-0.66132 -1.32916,-1.12973 -1.9929,-1.66778 0.30245,0.0148 0.60691,0.004 0.90926,0.0197 l 0.57474,0.0296 0.57474,-0.0567 c 1.20362,-0.1205 13.38505,0.22513 22.18163,-0.1283 4.39834,-0.1767 6.98934,0.66457 12.5197,-2.33885 1.38259,-0.75085 3.67431,-1.48434 5.93951,-6.87594 1.1326,-2.6958 1.74573,-6.86876 1.30789,-10.24852 -0.0937,-0.7224 -0.29983,-1.20742 -0.44486,-1.83308 2.54516,-0.36738 5.07384,-0.70362 7.61928,-1.07815 l 10.92708,-1.60611 -1.72596,-15.04712 c -0.74514,-6.49413 -4.97245,-11.45948 -7.65491,-12.94018 -2.68236,-1.4807 -4.60365,-1.57118 -6.44668,-1.62339 -3.68597,-0.10446 -7.12723,0.62353 -10.77758,1.51237 -7.30088,1.77767 -15.33608,4.5616 -18.81333,5.38824 -0.38697,0.0908 -0.7732,0.20021 -1.16016,0.29112 -17.17014,2.3755 -34.34243,4.84432 -51.56438,7.30523 l -2.77227,-13.88756 c -1.13959,0.27737 -2.20821,0.63395 -3.33988,0.92517 -0.8547,0.16457 -2.40406,0.59669 -5.3043,0.68587 -3.66982,0.1128 -7.93286,-0.0621 -11.83104,0.0148 l 0.40392,0.003 c -83.0921,-2.82956 -164.65766,22.19198 -242.01757,-3.29364 z m 47.27401,99.43585 c 0.13507,-10e-4 1.66142,8.34726 1.79646,8.346 -1.33314,0.63535 -8.19234,1.75332 -9.52243,2.40758 -0.0923,-4.00564 0.66056,-8.85335 -0.11749,-8.86131 2.61751,-0.60616 1.66495,-0.5106 4.2841,-1.10281 z m -43.68324,1.08308 c -0.77833,0.72221 -0.86922,8.72275 -1.6372,9.703 -0.96211,1.22805 -21.17393,1.02113 -21.9773,2.82292 -12.15566,-1.03627 -6.23051,-7.48363 -7.52093,-6.82189 9.44193,-2.35837 19.18133,-3.93039 29.10873,-5.25749 l 0.45374,-0.0592 0.4484,-0.11596 c 0.37411,-0.0964 0.75041,-0.17534 1.12456,-0.27138 z m -75.18731,69.94111 c 0.046,-0.0308 0.64514,0.0927 0.77936,0.079 -0.0322,0.0146 -0.14852,0.0832 -0.17794,0.0963 -0.34885,0.15468 -0.78577,-0.0517 -0.60142,-0.17517 z"
             style="color:#000000;font-style:normal;font-variant:normal;font-weight:normal;font-stretch:normal;font-size:medium;line-height:normal;font-family:sans-serif;text-indent:0;text-align:start;text-decoration:none;text-decoration-line:none;text-decoration-style:solid;text-decoration-color:#000000;letter-spacing:normal;word-spacing:normal;text-transform:none;direction:ltr;block-progression:tb;writing-mode:lr-tb;baseline-shift:baseline;text-anchor:start;white-space:normal;clip-rule:nonzero;display:inline;overflow:visible;visibility:visible;opacity:1;isolation:auto;mix-blend-mode:normal;color-interpolation:sRGB;color-interpolation-filters:linearRGB;solid-color:#000000;solid-opacity:1;fill:#ffffff;fill-opacity:1;fill-rule:evenodd;stroke:none;stroke-width:22.89999962;stroke-linecap:butt;stroke-linejoin:miter;stroke-miterlimit:4;stroke-dasharray:none;stroke-dashoffset:0;stroke-opacity:1;color-rendering:auto;image-rendering:auto;shape-rendering:auto;text-rendering:auto;enable-background:accumulate" />
        </g>
      </g>
      <g
         transform="matrix(0.77232188,0,0,0.77232188,-28.267449,100.41792)"
         id="g4459">
        <g
           id="g4406"
           style="fill:#ff0066;fill-opacity:1;stroke:none">
          <path
             inkscape:connector-curvature="0"
             id="path4158"
             d="m 226.78516,387.71875 c -52.38723,1.74446 -84.5606,27.02979 -84.5586,84.10742 l 3.47852,0 -0.0899,10.08985 -3.91796,0 0.0879,25.98242 0.98242,-0.0899 0,23.39258 -2.05274,0.0898 0.17774,13.21484 3.30469,3.48047 4.01757,-0.0879 3.125,10.35742 47.05274,2.94531 4.19726,-3.83984 48.68555,0.15234 4.41992,3.66211 46.84571,-3.53516 3.4082,-9.4707 4.16797,0.12696 2.02539,-3.43555 0.35742,-14.10547 -1.60742,0 0.35742,-30.71484 1.25,-0.17969 -0.35742,-17.14258 -3.57031,-0.17773 -0.17969,-5.89258 1.69726,-0.0234 c 6.62145,-96.42772 -83.76302,-88.21873 -83.30468,-88.90625 z m 40.35742,117.14258 a 18.035715,18.571428 0 0 1 18.03515,18.57226 18.035715,18.571428 0 0 1 -18.03515,18.57227 18.035715,18.571428 0 0 1 -18.03516,-18.57227 18.035715,18.571428 0 0 1 18.03516,-18.57226 z m -80.67774,0.35742 a 18.035715,18.571428 0 0 1 18.03516,18.57227 18.035715,18.571428 0 0 1 -18.03516,18.57031 18.035715,18.571428 0 0 1 -18.03711,-18.57031 18.035715,18.571428 0 0 1 18.03711,-18.57227 z"
             style="fill:#ff0066;fill-opacity:1;fill-rule:evenodd;stroke:none;stroke-width:1px;stroke-linecap:butt;stroke-linejoin:miter;stroke-opacity:1" />
          <path
             style="fill:#ff0066;fill-opacity:1;fill-rule:evenodd;stroke:none;stroke-width:1px;stroke-linecap:butt;stroke-linejoin:miter;stroke-opacity:1"
             d="m 154.64286,562.3622 4.28571,0 6.25,6.07143 6.07143,0.17857 3.75,9.64286 0.35714,3.92857 -9.46428,0 0,-3.39285 z"
             id="path4179"
             inkscape:connector-curvature="0" />
          <path
             style="fill:#ff0066;fill-opacity:1;fill-rule:evenodd;stroke:none;stroke-width:1px;stroke-linecap:butt;stroke-linejoin:miter;stroke-opacity:1"
             d="m 166.07143,562.00506 0.35714,3.03572 7.67857,1.25 6.25,15.17857 15.53572,0 -0.17857,-17.14286 -15.71429,0.71429 0.17857,-1.78572 z"
             id="path4181"
             inkscape:connector-curvature="0" />
          <path
             style="fill:#ff0066;fill-opacity:1;fill-rule:evenodd;stroke:none;stroke-width:1px;stroke-linecap:butt;stroke-linejoin:miter;stroke-opacity:1"
             d="m 174.64286,584.68363 3.21428,0 9.28572,20.35715 2.32143,1.60714 9.10714,-0.35714 0,2.67857 -11.42857,0.17857 -3.75,-2.85714 z"
             id="path4183"
             inkscape:connector-curvature="0" />
          <path
             style="fill:#ff0066;fill-opacity:1;fill-rule:evenodd;stroke:none;stroke-width:1px;stroke-linecap:butt;stroke-linejoin:miter;stroke-opacity:1"
             d="m 185.53571,584.32649 9.28572,9.28571 1.96428,-2.5 1.96429,0.35715 -0.17857,-6.96429 z"
             id="path4185"
             inkscape:connector-curvature="0" />
          <path
             style="fill:#ff0066;fill-opacity:1;fill-rule:evenodd;stroke:none;stroke-width:1px;stroke-linecap:butt;stroke-linejoin:miter;stroke-opacity:1"
             d="m 198.39286,595.39792 -2.5,2.32143 0.53571,3.03571 1.96429,2.14286 z"
             id="path4187"
             inkscape:connector-curvature="0" />
          <path
             style="fill:#ff0066;fill-opacity:1;fill-rule:evenodd;stroke:none;stroke-width:1px;stroke-linecap:butt;stroke-linejoin:miter;stroke-opacity:1"
             d="m 202.67857,571.29078 5,-4.82143 40,-0.17857 4.82143,4.10714 0.53571,44.64286 -11.07142,-0.35715 -0.17858,-17.85714 -2.32142,-1.42857 L 215,595.21935 l -2.5,2.85714 0,16.60714 -9.46429,-0.35714 z"
             id="path4189"
             inkscape:connector-curvature="0" />
          <rect
             style="opacity:1;fill:#ff0066;fill-opacity:1;stroke:none;stroke-width:0.89999998;stroke-linecap:round;stroke-linejoin:miter;stroke-miterlimit:4;stroke-dasharray:none;stroke-dashoffset:0;stroke-opacity:1"
             id="rect4191"
             width="4.1071429"
             height="21.607143"
             x="214.50893"
             y="599.32654"
             ry="0"
             rx="0" />
          <rect
             style="opacity:1;fill:#ff0066;fill-opacity:1;stroke:none;stroke-width:0.89999998;stroke-linecap:round;stroke-linejoin:miter;stroke-miterlimit:4;stroke-dasharray:none;stroke-dashoffset:0;stroke-opacity:1"
             id="rect4191-4"
             width="4.1071429"
             height="21.607143"
             x="219.91071"
             y="599.37115"
             ry="0"
             rx="0" />
          <rect
             style="opacity:1;fill:#ff0066;fill-opacity:1;stroke:none;stroke-width:0.89999998;stroke-linecap:round;stroke-linejoin:miter;stroke-miterlimit:4;stroke-dasharray:none;stroke-dashoffset:0;stroke-opacity:1"
             id="rect4191-4-0"
             width="4.1071429"
             height="21.607143"
             x="225.26785"
             y="599.37115"
             ry="0"
             rx="0" />
          <rect
             style="opacity:1;fill:#ff0066;fill-opacity:1;stroke:none;stroke-width:0.89999998;stroke-linecap:round;stroke-linejoin:miter;stroke-miterlimit:4;stroke-dasharray:none;stroke-dashoffset:0;stroke-opacity:1"
             id="rect4191-4-0-4"
             width="4.1071429"
             height="21.607143"
             x="230.625"
             y="599.28186"
             ry="0"
             rx="0" />
          <rect
             style="opacity:1;fill:#ff0066;fill-opacity:1;stroke:none;stroke-width:0.89999998;stroke-linecap:round;stroke-linejoin:miter;stroke-miterlimit:4;stroke-dasharray:none;stroke-dashoffset:0;stroke-opacity:1"
             id="rect4191-4-0-4-9"
             width="4.1071429"
             height="21.607143"
             x="236.02678"
             y="599.32654"
             ry="0"
             rx="0" />
          <path
             style="fill:#ff0066;fill-opacity:1;fill-rule:evenodd;stroke:none;stroke-width:1px;stroke-linecap:butt;stroke-linejoin:miter;stroke-opacity:1"
             d="m 300.79045,563.31386 -4.28571,0 -6.25,6.07143 -6.07143,0.17857 -3.75,9.64286 -0.35714,3.92857 9.46428,0 0,-3.39285 z"
             id="path4179-6"
             inkscape:connector-curvature="0" />
          <path
             style="fill:#ff0066;fill-opacity:1;fill-rule:evenodd;stroke:none;stroke-width:1px;stroke-linecap:butt;stroke-linejoin:miter;stroke-opacity:1"
             d="m 289.36188,562.95672 -0.35714,3.03572 -7.67857,1.25 -6.25,15.17857 -15.53572,0 0.17857,-17.14286 15.71429,0.71429 -0.17857,-1.78572 z"
             id="path4181-2"
             inkscape:connector-curvature="0" />
          <path
             style="fill:#ff0066;fill-opacity:1;fill-rule:evenodd;stroke:none;stroke-width:1px;stroke-linecap:butt;stroke-linejoin:miter;stroke-opacity:1"
             d="m 280.79045,585.63529 -3.21428,0 -9.28572,20.35715 -2.32143,1.60714 -9.10714,-0.35714 0,2.67857 11.42857,0.17857 3.75,-2.85714 z"
             id="path4183-0"
             inkscape:connector-curvature="0" />
          <path
             style="fill:#ff0066;fill-opacity:1;fill-rule:evenodd;stroke:none;stroke-width:1px;stroke-linecap:butt;stroke-linejoin:miter;stroke-opacity:1"
             d="m 269.8976,585.27815 -9.28572,9.28571 -1.96428,-2.5 -1.96429,0.35715 0.17857,-6.96429 z"
             id="path4185-3"
             inkscape:connector-curvature="0" />
          <path
             style="fill:#ff0066;fill-opacity:1;fill-rule:evenodd;stroke:none;stroke-width:1px;stroke-linecap:butt;stroke-linejoin:miter;stroke-opacity:1"
             d="m 257.04045,596.34958 2.5,2.32143 -0.53571,3.03571 -1.96429,2.14286 z"
             id="path4187-3"
             inkscape:connector-curvature="0" />
          <ellipse
             style="opacity:1;fill:#ff0066;fill-opacity:1;stroke:none;stroke-width:0.87978524;stroke-linecap:round;stroke-linejoin:round;stroke-miterlimit:4;stroke-dasharray:none;stroke-dashoffset:0;stroke-opacity:1"
             id="path4162-8"
             cx="246.33928"
             cy="607.89795"
             rx="3.2778912"
             ry="3.1886041" />
          <ellipse
             style="opacity:1;fill:#ff0066;fill-opacity:1;stroke:none;stroke-width:0.87978524;stroke-linecap:round;stroke-linejoin:round;stroke-miterlimit:4;stroke-dasharray:none;stroke-dashoffset:0;stroke-opacity:1"
             id="path4162-8-0"
             cx="207.85715"
             cy="607.71936"
             rx="3.2778912"
             ry="3.1886041" />
        </g>
        <g
           id="g4374">
          <ellipse
             ry="13.571428"
             rx="13.214286"
             cy="618.14789"
             cx="334.5"
             id="path4310"
             style="opacity:1;fill:#ff0066;fill-opacity:1;stroke:none;stroke-width:0.92199999;stroke-linecap:round;stroke-linejoin:round;stroke-miterlimit:4;stroke-dasharray:none;stroke-dashoffset:0;stroke-opacity:1" />
          <path
             sodipodi:nodetypes="cc"
             inkscape:connector-curvature="0"
             id="path4312"
             d="m 325.71428,622.3622 -165,67.14286"
             style="fill:#ff0066;fill-rule:evenodd;stroke:#ff0066;stroke-width:11;stroke-linecap:butt;stroke-linejoin:miter;stroke-miterlimit:4;stroke-dasharray:none;stroke-opacity:1" />
          <ellipse
             ry="13.571428"
             rx="13.214286"
             cy="694.14789"
             cx="153.21429"
             id="path4310-4"
             style="opacity:1;fill:#ff0066;fill-opacity:1;stroke:none;stroke-width:0.92199999;stroke-linecap:round;stroke-linejoin:round;stroke-miterlimit:4;stroke-dasharray:none;stroke-dashoffset:0;stroke-opacity:1" />
          <ellipse
             ry="13.571428"
             rx="13.214286"
             cy="688.43359"
             cx="305.35715"
             id="path4310-4-7"
             style="opacity:1;fill:#ff0066;fill-opacity:1;stroke:none;stroke-width:0.92199999;stroke-linecap:round;stroke-linejoin:round;stroke-miterlimit:4;stroke-dasharray:none;stroke-dashoffset:0;stroke-opacity:1" />
          <ellipse
             ry="13.571428"
             rx="13.214286"
             cy="623.60999"
             cx="143.17712"
             id="path4310-4-7-3"
             style="opacity:1;fill:#ff0066;fill-opacity:1;stroke:none;stroke-width:0.92199999;stroke-linecap:round;stroke-linejoin:round;stroke-miterlimit:4;stroke-dasharray:none;stroke-dashoffset:0;stroke-opacity:1" />
          <path
             sodipodi:nodetypes="cc"
             inkscape:connector-curvature="0"
             id="path4312-5"
             d="M 296.07143,683.07649 151.2868,627.59988"
             style="fill:#ff0066;fill-rule:evenodd;stroke:#ff0066;stroke-width:11;stroke-linecap:butt;stroke-linejoin:miter;stroke-miterlimit:4;stroke-dasharray:none;stroke-opacity:1" />
        </g>
      </g>
      <flowRoot
         transform="matrix(0.82125401,0,0,0.82125401,15.652841,81.744031)"
         style="font-style:normal;font-weight:normal;font-size:10px;line-height:125%;font-family:sans-serif;letter-spacing:0px;word-spacing:0px;fill:#002255;fill-opacity:1;stroke:none;stroke-width:1px;stroke-linecap:butt;stroke-linejoin:miter;stroke-opacity:1"
         id="flowRoot4492"
         xml:space="preserve"><flowRegion
           id="flowRegion4494"><rect
             style="fill:#002255"
             y="450.93362"
             x="379.28571"
             height="318.57144"
             width="422.85712"
             id="rect4496" /></flowRegion><flowPara
           style="font-style:normal;font-variant:normal;font-weight:normal;font-stretch:normal;font-size:70px;font-family:Propaganda;-inkscape-font-specification:Propaganda;fill:#002255"
           id="flowPara4498">The Rogue </flowPara><flowPara
           id="flowPara4500"
           style="font-style:normal;font-variant:normal;font-weight:normal;font-stretch:normal;font-size:70px;font-family:Propaganda;-inkscape-font-specification:Propaganda;fill:#002255">        Node</flowPara></flowRoot>    </g>
  </g>
</svg>
